<svg width="17" height="16" viewBox="0 0 17 16" fill="none" xmlns="http://www.w3.org/2000/svg">
<g clip-path="url(#clip0_54_2674)">
<path d="M8.58472 7.3335C8.58472 7.05736 8.36085 6.8335 8.08472 6.8335C7.80858 6.8335 7.58472 7.05736 7.58472 7.3335V11.3335C7.58472 11.6096 7.80858 11.8335 8.08472 11.8335C8.36085 11.8335 8.58472 11.6096 8.58472 11.3335V7.3335Z" fill="black"/>
<path fill-rule="evenodd" clip-rule="evenodd" d="M8.08463 0.833496C4.1266 0.833496 0.917969 4.04212 0.917969 8.00016C0.917969 11.9582 4.1266 15.1668 8.08463 15.1668C12.0427 15.1668 15.2513 11.9582 15.2513 8.00016C15.2513 4.04212 12.0427 0.833496 8.08463 0.833496ZM1.91797 8.00016C1.91797 4.59441 4.67888 1.8335 8.08463 1.8335C11.4904 1.8335 14.2513 4.59441 14.2513 8.00016C14.2513 11.4059 11.4904 14.1668 8.08463 14.1668C4.67888 14.1668 1.91797 11.4059 1.91797 8.00016Z" fill="black"/>
<path d="M8.7513 5.33366C8.7513 5.70185 8.45284 6.00033 8.08464 6.00033C7.71644 6.00033 7.41797 5.70185 7.41797 5.33366C7.41797 4.96547 7.71644 4.66699 8.08464 4.66699C8.45284 4.66699 8.7513 4.96547 8.7513 5.33366Z" fill="black"/>
</g>
<defs>
<clipPath id="clip0_54_2674">
<rect width="16" height="16" fill="white" transform="translate(0.0847168)"/>
</clipPath>
</defs>
</svg>
