<svg width="24" height="24" viewBox="0 0 24 24" fill="none" xmlns="http://www.w3.org/2000/svg">
<g clip-path="url(#clip0_133_1970)">
<path d="M20.3355 3.68845C20.3025 1.64902 18.6331 0 16.5859 0H3.75C1.68225 0 0 1.68225 0 3.75V16.5625C0 18.6017 1.63603 20.266 3.66455 20.3115C3.69755 22.351 5.36686 24 7.41408 24H20.25C22.3177 24 24 22.3177 24 20.25V7.43752C24 5.39827 22.364 3.73397 20.3355 3.68845ZM4.60158 18.4375H3.75C2.71613 18.4375 1.875 17.5964 1.875 16.5625V3.75C1.875 2.71613 2.71613 1.875 3.75 1.875H16.5859C17.6198 1.875 18.4609 2.71613 18.4609 3.75V16.5625C18.4609 17.5964 17.6198 18.4375 16.5859 18.4375H4.60158ZM22.125 20.25C22.125 21.2839 21.2839 22.125 20.25 22.125H7.41408C6.40111 22.125 5.57316 21.3176 5.54011 20.3125H16.586C18.6537 20.3125 20.336 18.6302 20.336 16.5625V5.56444C21.3301 5.60944 22.125 6.43237 22.125 7.43747V20.25H22.125Z" fill="#1B6DDF"/>
</g>
<defs>
<clipPath id="clip0_133_1970">
<rect width="24" height="24" fill="white"/>
</clipPath>
</defs>
</svg>
