<svg width="25" height="24" viewBox="0 0 25 24" fill="none" xmlns="http://www.w3.org/2000/svg">
<path d="M7.29475 11.209C6.90423 10.8185 6.90423 10.1853 7.29475 9.7948C7.68528 9.40427 8.31844 9.40427 8.70897 9.7948L11.4999 12.5857L11.4999 5.49952C11.4999 4.94724 11.9476 4.49952 12.4999 4.49952C13.0522 4.49952 13.4999 4.94724 13.4999 5.49952L13.4999 12.5858L16.2929 9.79284C16.6834 9.40232 17.3166 9.40232 17.7071 9.79284C18.0976 10.1834 18.0976 10.8165 17.7071 11.2071L13.2071 15.7071C13.0195 15.8946 12.7652 16 12.5 16C12.2347 16 11.9804 15.8946 11.7929 15.7071L7.29475 11.209Z" fill="currentColor"/>
<path fill-rule="evenodd" clip-rule="evenodd" d="M4.5 14C5.05228 14 5.5 14.4477 5.5 15V17C5.5 17.5523 5.94772 18 6.5 18H18.5C19.0523 18 19.5 17.5523 19.5 17V15C19.5 14.4477 19.9477 14 20.5 14C21.0523 14 21.5 14.4477 21.5 15V17C21.5 18.6569 20.1569 20 18.5 20H6.5C4.84315 20 3.5 18.6569 3.5 17V15C3.5 14.4477 3.94772 14 4.5 14Z" fill="currentColor"/>
</svg>
